<svg id="Capa_1" enable-background="new 0 0 511.138 511.138" height="512" viewBox="0 0 511.138 511.138" width="512" xmlns="http://www.w3.org/2000/svg"><g id="XMLID_27_"><path id="XMLID_28_" d="m110.113 254.467h55.704v237.411h-55.704z" transform="matrix(.707 -.707 .707 .707 -223.464 206.856)"/><path id="XMLID_29_" d="m469.328 8.531h36.557v30h-36.557z" transform="matrix(.707 -.707 .707 .707 126.178 351.682)"/><path id="XMLID_31_" d="m5.253 472.607h36.557v30h-36.557z" transform="matrix(.707 -.707 .707 .707 -337.898 159.456)"/><path id="XMLID_32_" d="m49.511 353.001h55.704v161.546h-55.704z" transform="matrix(.707 -.707 .707 .707 -284.066 181.754)"/><path id="XMLID_34_" d="m345.321 19.259h55.703v237.41h-55.703z" transform="matrix(.707 -.707 .707 .707 11.746 304.287)"/><path id="XMLID_35_" d="m405.922.489h55.704v153.749h-55.704z" transform="matrix(.707 -.707 .707 .707 72.346 329.384)"/><path id="XMLID_48_" d="m147.103 227.2h216.933v56.738h-216.933z" transform="matrix(.707 -.707 .707 .707 -105.86 255.569)"/></g></svg>